<svg width="180" height="28" viewBox="0 0 180 28" fill="none" xmlns="http://www.w3.org/2000/svg">
<g clip-path="url(#clip0_292_151)">
<path d="M6.13578 15.8394C9.5157 15.8394 12.257 18.5544 12.257 21.9039C12.257 25.2534 9.5157 27.9685 6.13578 27.9685C2.75585 27.9685 0.015625 25.2524 0.015625 21.9039C0.015625 18.5544 2.75585 15.8394 6.13578 15.8394Z" fill="#080D0D"/>
<path d="M14.1592 0.0734863C17.5391 0.0734863 20.2804 2.78959 20.2804 6.13806C20.2797 6.424 20.2601 6.70435 20.2217 6.97911C19.9134 9.17716 19.4593 11.6573 20.7093 13.4999L22.1471 15.6214L22.5036 16.0534C22.5676 16.1331 22.6913 16.1289 22.7501 16.045L23.051 15.6214L24.3671 13.6813C25.678 11.7454 25.203 9.13102 24.9775 6.81027C24.9586 6.61508 24.9491 6.4191 24.9492 6.223C24.9492 2.87349 27.6894 0.159479 31.0693 0.158431C34.4492 0.157382 37.1905 2.87454 37.1905 6.223C37.1905 6.54879 37.165 6.86794 37.114 7.18045C36.7815 9.26 36.3044 11.5608 37.3667 13.3845L37.9739 14.3566C38.5486 15.2795 39.5784 15.7797 40.6229 16.0828C43.1628 16.8211 45.0179 19.147 45.0179 21.903C45.0179 25.2536 42.2788 27.9686 38.8978 27.9686C35.5168 27.9686 32.7787 25.2525 32.7787 21.9041C32.7787 21.5433 32.8094 21.1916 32.871 20.8491C33.2338 18.7989 33.7141 16.5253 32.6633 14.7226L31.3283 12.4323L31.2487 12.3222C31.2352 12.3037 31.2178 12.2886 31.1976 12.278C31.1774 12.2674 31.155 12.2616 31.1322 12.261C31.1094 12.2603 31.0868 12.265 31.0661 12.2745C31.0453 12.284 31.0271 12.2982 31.0127 12.3159L29.5865 14.4196C28.3081 16.3051 28.7895 18.8503 29.0894 21.1029C29.1244 21.365 29.1418 21.6321 29.1418 21.9041C29.1418 25.2536 26.4016 27.9686 23.0217 27.9686C19.6418 27.9686 16.9015 25.2525 16.9015 21.9041C16.9015 19.5235 17.2728 16.8682 15.9336 14.8936L15.8266 14.7363C14.7517 13.1506 12.8421 12.3641 11.161 11.4266C10.2161 10.9039 9.42822 10.1378 8.87925 9.20782C8.33027 8.27787 8.04018 7.21795 8.03906 6.13806C8.03906 2.78959 10.7793 0.074535 14.1592 0.0734863Z" fill="#080D0D"/>
<path fill-rule="evenodd" clip-rule="evenodd" d="M99.8587 5.07056C101.218 5.07056 102.453 5.35755 103.564 5.93153C104.697 6.50551 105.581 7.30916 106.216 8.34247V5.55295H110.363V22.1537H106.216V19.3642C105.584 20.4162 104.664 21.2643 103.564 21.8076C102.453 22.3592 101.23 22.6351 99.8922 22.6351C98.2835 22.6351 96.8444 22.2561 95.5748 21.4983C94.3282 20.718 93.3421 19.662 92.6164 18.3302C91.9138 16.9983 91.5625 15.5057 91.5625 13.8523C91.5625 12.1772 91.9138 10.6849 92.6164 9.37542C93.3421 8.04359 94.3282 6.9991 95.5748 6.24194C96.8437 5.46102 98.2717 5.07056 99.8587 5.07056ZM100.946 8.41168C99.4053 8.41168 98.1587 8.9168 97.2065 9.92704C96.2543 10.9135 95.7782 12.2223 95.7782 13.8533C95.7782 15.483 96.2543 16.8029 97.2065 17.8132C98.1587 18.801 99.4053 19.2946 100.946 19.2939C102.465 19.2939 103.723 18.8003 104.72 17.8132C105.717 16.826 106.216 15.5057 106.216 13.8523C106.216 12.1995 105.717 10.8796 104.72 9.89243C103.723 8.90526 102.465 8.41168 100.946 8.41168Z" fill="#080D0D"/>
<path d="M121.041 5.07056C123.172 5.07056 124.917 5.518 126.277 6.41288C127.659 7.28609 128.396 8.49208 128.487 10.0309L124.577 10.271C124.554 9.58237 124.237 8.99685 123.625 8.51445C123.036 8.00968 122.163 7.7573 121.007 7.7573C120.01 7.7573 119.228 7.95235 118.662 8.34247C118.095 8.70951 117.811 9.19191 117.811 9.78966C117.811 10.3629 118.083 10.7988 118.627 11.0974C119.171 11.3959 119.863 11.6256 120.702 11.7864L123.387 12.3034C124.32 12.4521 125.232 12.7061 126.107 13.0605C126.946 13.3821 127.637 13.8645 128.181 14.5077C128.725 15.1271 128.997 15.9881 128.997 17.0906C128.997 18.8126 128.305 20.1671 126.923 21.1543C125.54 22.1415 123.659 22.6351 121.28 22.6351C118.74 22.6351 116.734 22.0953 115.262 21.0159C113.788 19.9148 113.029 18.4913 112.984 16.7456L116.996 16.4709C116.996 17.435 117.381 18.2267 118.151 18.8461C118.945 19.467 119.999 19.777 121.313 19.7763C122.446 19.7763 123.296 19.5701 123.863 19.1576C124.453 18.7206 124.748 18.1809 124.748 17.5384C124.748 16.9183 124.476 16.4474 123.932 16.1258C123.388 15.8042 122.696 15.5519 121.857 15.3687C121.018 15.1855 120.112 15.0016 119.137 14.8171C118.221 14.6433 117.323 14.3896 116.451 14.0589C115.612 13.7373 114.921 13.2783 114.378 12.6819C113.834 12.0842 113.562 11.2805 113.562 10.271C113.562 8.66372 114.253 7.40109 115.635 6.48314C117.018 5.54142 118.82 5.07056 121.041 5.07056Z" fill="#080D0D"/>
<path d="M138.197 5.55263H143.569V8.72073H138.197V16.4359C138.197 17.4231 138.413 18.1348 138.843 18.5711C139.296 18.9835 139.908 19.1898 140.678 19.1898C141.132 19.1898 141.608 19.1097 142.107 18.9496C142.6 18.7694 143.043 18.4742 143.399 18.0887L144.045 21.5326C143.659 21.8542 143.104 22.1184 142.378 22.3254C141.649 22.532 140.894 22.6361 140.135 22.6347C138.322 22.6347 136.849 22.1411 135.715 21.154C134.605 20.1661 134.05 18.777 134.05 16.9865V8.72073H130.445V5.55263H134.05V0.52417H138.197V5.55263Z" fill="#080D0D"/>
<path fill-rule="evenodd" clip-rule="evenodd" d="M168.569 5.07056C169.929 5.07056 171.164 5.35755 172.275 5.93153C173.407 6.50551 174.291 7.30916 174.927 8.34247V5.55295H179.074V22.1537H174.927V19.3642C174.295 20.4162 173.375 21.2643 172.275 21.8076C171.164 22.3592 169.94 22.6351 168.603 22.6351C166.994 22.6351 165.554 22.2561 164.285 21.4983C163.039 20.718 162.053 19.662 161.327 18.3302C160.625 16.9983 160.273 15.5057 160.273 13.8523C160.273 12.1772 160.625 10.6849 161.327 9.37542C162.053 8.04359 163.039 6.9991 164.285 6.24194C165.554 5.46102 166.982 5.07056 168.569 5.07056ZM169.657 8.41168C168.116 8.41168 166.869 8.9168 165.917 9.92704C164.965 10.9135 164.489 12.2223 164.489 13.8533C164.489 15.483 164.965 16.8029 165.917 17.8132C166.868 18.801 168.115 19.2946 169.657 19.2939C171.176 19.2939 172.433 18.8003 173.43 17.8132C174.428 16.826 174.927 15.5057 174.927 13.8523C174.927 12.1995 174.428 10.8796 173.43 9.89243C172.433 8.90526 171.175 8.41168 169.657 8.41168Z" fill="#080D0D"/>
<path d="M82.2399 5.13843C84.1206 5.13843 85.6391 5.72429 86.7955 6.89603C87.9735 8.0433 88.5625 9.60444 88.5625 11.5795V22.1524H84.4149V12.4751C84.4149 11.2355 84.0979 10.2711 83.4638 9.58172C82.8513 8.89308 82.0124 8.54876 80.9469 8.54876C79.7689 8.54876 78.7719 8.99621 77.9561 9.89109C77.1402 10.7874 76.7322 11.913 76.7322 13.2679V22.1524H72.5836V12.1311C72.5836 11.0516 72.2666 10.1903 71.6325 9.54712C71.02 8.88225 70.2038 8.54946 69.1838 8.54876C67.9596 8.54876 66.9399 9.01928 66.1247 9.9603C65.3096 10.9013 64.8901 12.1185 64.8663 13.6118V22.1524H60.7188V5.55161H64.8663V8.75536C65.3938 7.69491 66.1914 6.79211 67.1787 6.13783C68.198 5.47226 69.3764 5.13948 70.7138 5.13948C71.9827 5.13948 73.116 5.44919 74.1137 6.06861C75.1106 6.66637 75.8132 7.53888 76.2215 8.68614C76.7416 7.58865 77.5837 6.67562 78.6356 6.06861C79.7011 5.44989 80.9025 5.14017 82.2399 5.13948" fill="#080D0D"/>
<path d="M157.272 5.07056C157.68 5.07056 158.076 5.11635 158.461 5.20793C158.869 5.27785 159.277 5.40439 159.685 5.58756L159.277 9.58307C158.869 9.34 158.436 9.14303 157.985 8.9958C157.523 8.85291 157.041 8.78355 156.558 8.79026C156.081 8.79026 155.549 8.87066 154.959 9.03145C154.393 9.19225 153.838 9.4789 153.294 9.89138C152.772 10.3053 152.342 10.8911 152.002 11.649C151.662 12.3831 151.491 13.3244 151.491 14.4731V22.1527H147.344V5.5519H151.491V9.03145C151.854 7.86927 152.596 6.86253 153.599 6.17273C154.642 5.43865 155.866 5.0716 157.272 5.0716" fill="#080D0D"/>
</g>
<defs>
<clipPath id="clip0_292_151">
<rect width="179.116" height="28" fill="white"/>
</clipPath>
</defs>
</svg>
